HIERARCHY
ROOT SpineBase
{
  OFFSET 0.000000 0.000000 0.000000
  CHANNELS 6 Xposition Yposition Zposition Zrotation Xrotation Yrotation
  JOINT SpineMid
  {
    OFFSET 0.000000 27.632500 0.000000
    CHANNELS 3 Zrotation Xrotation Yrotation
    JOINT SpineShoulder
    {
      OFFSET 0.045179 20.471392 -0.668188
      CHANNELS 3 Zrotation Xrotation Yrotation
      JOINT Neck
      {
        OFFSET 0.003871 6.760248 -0.524387
        CHANNELS 3 Zrotation Xrotation Yrotation
        JOINT Head
        {
          OFFSET 3.695569 13.897503 -0.102604
          CHANNELS 3 Zrotation Xrotation Yrotation
          End Site
          {
            OFFSET 0 0 0
          }
        }
      }
      JOINT ShoulderLeft
      {
        OFFSET -15.435438 -3.601571 -6.972695
        CHANNELS 3 Zrotation Xrotation Yrotation
        JOINT ElbowLeft
        {
          OFFSET -4.828617 -23.048883 -2.870727
          CHANNELS 3 Zrotation Xrotation Yrotation
          JOINT WristLeft
          {
            OFFSET 2.921341 -23.666204 -6.123562
            CHANNELS 3 Zrotation Xrotation Yrotation
            JOINT HandLeft
            {
              OFFSET 1.820460 -4.920244 -0.665491
              CHANNELS 3 Zrotation Xrotation Yrotation
              JOINT HandTipLeft
              {
                OFFSET 1.938574 -7.369284 0.301554
                CHANNELS 3 Zrotation Xrotation Yrotation
                End Site
                {
                  OFFSET 0 0 0
                }
              }
              JOINT ThumbLeft
              {
                OFFSET 3.649754 0.757775 -1.267502
                CHANNELS 3 Zrotation Xrotation Yrotation
                End Site
                {
                  OFFSET 0 0 0
                }
              }
            }
          }
        }
      }
      JOINT ShoulderRight
      {
        OFFSET 15.637776 -5.087792 6.419543
        CHANNELS 3 Zrotation Xrotation Yrotation
        JOINT ElbowRight
        {
          OFFSET 0.514965 -25.007457 2.407387
          CHANNELS 3 Zrotation Xrotation Yrotation
          JOINT WristRight
          {
            OFFSET -0.668472 -21.311923 -6.988592
            CHANNELS 3 Zrotation Xrotation Yrotation
            JOINT HandRight
            {
              OFFSET -2.588353 -4.017226 -2.883748
              CHANNELS 3 Zrotation Xrotation Yrotation
              JOINT HandTipRight
              {
                OFFSET -0.380287 -5.330358 -0.344765
                CHANNELS 3 Zrotation Xrotation Yrotation
                End Site
                {
                  OFFSET 0 0 0
                }
              }
              JOINT ThumbRight
              {
                OFFSET -2.234328 1.238060 -3.134615
                CHANNELS 3 Zrotation Xrotation Yrotation
                End Site
                {
                  OFFSET 0 0 0
                }
              }
            }
          }
        }
      }
    }
  }
  JOINT HipLeft
  {
    OFFSET -6.580345 1.111861 -5.647480
    CHANNELS 3 Zrotation Xrotation Yrotation
    JOINT KneeLeft
    {
      OFFSET -9.610675 -34.144386 0.115238
      CHANNELS 3 Zrotation Xrotation Yrotation
      JOINT AnkleLeft
      {
        OFFSET -4.508851 -32.606971 2.422314
        CHANNELS 3 Zrotation Xrotation Yrotation
        JOINT FootLeft
        {
          OFFSET 1.032443 -7.638836 -6.932601
          CHANNELS 3 Zrotation Xrotation Yrotation
          End Site
          {
            OFFSET 0 0 0
          }
        }
      }
    }
  }
  JOINT HipRight
  {
    OFFSET 6.128919 -0.242505 -1.142601
    CHANNELS 3 Zrotation Xrotation Yrotation
    JOINT KneeRight
    {
      OFFSET -6.789822 -35.132014 4.732308
      CHANNELS 3 Zrotation Xrotation Yrotation
      JOINT AnkleRight
      {
        OFFSET -5.458234 -31.042362 3.547804
        CHANNELS 3 Zrotation Xrotation Yrotation
        JOINT FootRight
        {
          OFFSET 1.803155 -8.048162 -5.994863
          CHANNELS 3 Zrotation Xrotation Yrotation
          End Site
          {
            OFFSET 0 0 0
          }
        }
      }
    }
  }
}
MOTION
Frames: 9
Frame Time: 0.033333
18.650294 65.996800 386.503785 12.509334 -29.685470 1.746143 0.714758 -1.376563 2.022270 -0.021395 0.372501 0.452587 11.620872 11.125114 -0.853165 0.000000 0.000000 0.000000 -16.056687 20.047527 6.699226 74.788702 1.429110 -30.467354 -74.584254 -39.470420 -3.644709 109.840025 40.986777 -45.422066 0.000000 0.000000 0.000000 0.000000 0.000000 0.000000 35.818549 -0.920687 -6.801822 -111.950961 27.841316 53.137064 25.148921 -43.061693 5.533528 -43.878481 41.584028 11.089040 0.000000 0.000000 0.000000 0.000000 0.000000 0.000000 -16.665326 52.183003 0.732001 -5.950789 -15.289382 2.548453 -1.931141 -5.495257 10.073576 0.000000 0.000000 0.000000 6.900862 34.555977 -4.370835 -20.979563 -8.413245 -2.238881 1.989694 -1.392993 -0.400374 0.000000 0.000000 0.000000
17.299880 65.767110 385.783800 13.499099 -31.780113 4.788907 0.497284 -0.834118 -0.488866 0.056197 0.195053 0.476781 12.308824 13.538128 -2.132707 0.000000 0.000000 0.000000 -14.803693 19.679773 6.482512 73.930019 2.314973 -33.108925 -77.377986 -32.066219 -1.420676 103.120659 37.840325 -32.222680 0.000000 0.000000 0.000000 0.000000 0.000000 0.000000 30.476683 3.087090 -7.739660 -101.641056 28.620780 47.758271 22.777043 -35.744375 3.701479 -42.899784 35.640186 8.268494 0.000000 0.000000 0.000000 0.000000 0.000000 0.000000 -11.352873 55.123440 -4.926705 -7.400679 -16.173125 2.454231 -3.187184 -3.889441 10.598438 0.000000 0.000000 0.000000 8.669155 35.085413 -7.564063 -20.138346 -7.922713 -1.891794 0.550525 -0.645359 -0.653107 0.000000 0.000000 0.000000
15.750371 65.407001 384.920562 13.563973 -33.113815 6.597133 0.540242 -0.316389 -2.184196 0.244487 -0.067045 0.462699 14.994505 12.544510 -2.655345 0.000000 0.000000 0.000000 -12.760217 18.332845 5.958561 72.226735 3.361612 -35.779389 -79.485982 -26.820805 0.162107 99.738413 34.957936 -23.746806 0.000000 0.000000 0.000000 0.000000 0.000000 0.000000 23.135026 7.047606 -7.356506 -90.200971 28.859072 43.238417 23.575680 -34.484228 3.879868 -46.089001 34.616863 9.834798 0.000000 0.000000 0.000000 0.000000 0.000000 0.000000 -5.161185 56.710284 -10.477200 -8.947769 -17.346676 2.367444 -3.762570 -1.468739 10.645162 0.000000 0.000000 0.000000 11.582678 34.565062 -10.085466 -20.406006 -7.213348 -1.756703 -1.202039 -1.027910 -0.691584 0.000000 0.000000 0.000000
14.273511 65.071720 383.980428 13.434110 -34.263124 6.875326 0.813633 -0.349682 -2.437886 0.067912 0.268669 0.464676 16.944244 13.904705 -4.130810 0.000000 0.000000 0.000000 -10.855151 17.939233 5.304909 70.226686 4.267945 -36.927040 -76.531673 -29.751135 -0.537302 98.359132 33.362393 -25.230916 0.000000 0.000000 0.000000 0.000000 0.000000 0.000000 15.823773 10.402644 -6.189565 -79.716566 28.778244 39.745845 25.391369 -39.411593 6.730712 -50.433875 42.095178 15.865233 0.000000 0.000000 0.000000 0.000000 0.000000 0.000000 -1.332922 57.559082 -13.267709 -10.068708 -18.382884 2.365395 -4.992968 4.434406 11.655198 0.000000 0.000000 0.000000 12.713330 34.288666 -10.506373 -19.172613 -6.770855 -1.378303 -3.070301 0.314510 -0.813878 0.000000 0.000000 0.000000
12.958946 64.687991 383.020711 13.150438 -35.065637 5.830765 0.856755 -0.099383 -1.431381 0.171575 0.319004 0.420834 19.357119 14.237758 -5.370824 0.000000 0.000000 0.000000 -10.472528 16.684416 5.622835 68.957158 4.956494 -38.172560 -74.726618 -23.348423 2.493993 93.052947 27.869791 -15.543859 0.000000 0.000000 0.000000 0.000000 0.000000 0.000000 8.983248 12.692759 -4.497335 -71.192230 28.757909 37.677874 29.163386 -49.844598 13.524073 -46.215152 57.886888 18.471452 0.000000 0.000000 0.000000 0.000000 0.000000 0.000000 -0.882226 57.728375 -12.556313 -10.110256 -18.964788 2.601070 -4.321275 13.114014 11.084146 0.000000 0.000000 0.000000 13.845585 33.860743 -9.756221 -19.314102 -6.042716 -1.292704 -4.115906 0.907590 -1.049854 0.000000 0.000000 0.000000
11.660755 64.206218 382.054288 12.784893 -35.719350 4.076237 0.722303 0.175456 0.282922 -0.017890 0.506054 0.424028 20.384136 16.768334 -7.111384 0.000000 0.000000 0.000000 -5.382492 14.692644 3.638528 63.203696 7.100036 -39.360522 -72.743520 -15.419341 6.089998 89.227012 23.916385 -7.063636 0.000000 0.000000 0.000000 0.000000 0.000000 0.000000 3.572278 14.206973 -2.853873 -65.609599 28.842091 37.265607 39.499104 -63.749755 27.817348 -29.683948 75.714206 6.881607 0.000000 0.000000 0.000000 0.000000 0.000000 0.000000 -1.552094 57.478531 -10.425933 -10.090650 -19.128018 2.813473 -1.259176 24.374339 8.416735 0.000000 0.000000 0.000000 14.332062 33.328186 -8.021895 -18.913815 -4.817694 -1.224155 -5.155407 1.864026 -1.360150 0.000000 0.000000 0.000000
10.674893 63.741390 381.279908 12.867510 -36.213339 2.081626 0.698701 0.264972 2.361894 -0.038678 0.535189 0.426002 19.496069 18.252177 -7.418241 0.000000 0.000000 0.000000 -5.723999 16.747222 3.366706 62.235703 6.543002 -37.113842 -72.387339 -7.486092 9.635580 86.034614 24.164986 -1.239708 0.000000 0.000000 0.000000 0.000000 0.000000 0.000000 0.057711 13.133006 -1.602532 -63.060815 30.038851 38.806356 83.831169 -75.503838 77.381898 102.480528 76.881016 -123.250380 0.000000 0.000000 0.000000 0.000000 0.000000 0.000000 -4.201005 57.144549 -6.788538 -9.588096 -19.182036 3.106496 5.501667 36.995830 2.211961 0.000000 0.000000 0.000000 13.888076 32.980180 -5.636629 -18.488769 -3.391488 -1.264390 -5.649090 2.227810 -1.947452 0.000000 0.000000 0.000000
9.833665 63.375263 380.559659 12.743690 -36.331337 -0.290147 0.618316 0.380992 4.711611 -0.035649 0.535788 0.417762 18.291702 17.288647 -6.218392 0.000000 0.000000 0.000000 -9.030538 20.481699 4.354150 65.015874 4.282685 -33.378640 -72.278860 -12.851022 7.686055 89.129507 26.766824 -7.374491 0.000000 0.000000 0.000000 0.000000 0.000000 0.000000 -0.275287 9.481739 -1.205089 -64.946595 32.130444 42.833282 112.568262 -74.946018 107.645109 106.399686 62.192920 -126.649753 0.000000 0.000000 0.000000 0.000000 0.000000 0.000000 -7.081563 55.991935 -2.601482 -9.188690 -18.674114 3.250412 13.387884 45.612126 -5.457486 0.000000 0.000000 0.000000 13.511373 32.377261 -2.926489 -18.395968 -1.784944 -1.422219 -5.239729 -0.921096 -3.861724 0.000000 0.000000 0.000000
9.337929 63.138165 380.002279 12.899418 -36.333662 -2.983147 0.717927 0.322918 7.439523 -0.006255 0.505815 0.423433 16.064600 16.204670 -4.566297 0.000000 0.000000 0.000000 -12.907859 23.425477 5.888649 69.303475 2.605348 -31.076413 -73.719032 -13.384528 7.395898 89.089534 26.724744 -7.344283 0.000000 0.000000 0.000000 0.000000 0.000000 0.000000 -1.054382 8.049940 -0.890175 -66.036263 33.213657 45.062509 113.751269 -74.279099 106.509730 104.707728 56.663072 -124.265086 0.000000 0.000000 0.000000 0.000000 0.000000 0.000000 -11.252496 54.420643 2.677342 -8.521933 -17.931476 3.357848 22.142621 53.079217 -14.034442 0.000000 0.000000 0.000000 11.576518 32.411816 0.577149 -16.678764 -1.039686 -1.384369 -6.388929 1.475338 -3.676319 0.000000 0.000000 0.000000
